<?xml version="1.0" encoding="iso-8859-1"?>
<!-- Generator: Adobe Illustrator 19.0.0, SVG Export Plug-In . SVG Version: 6.00 Build 0)  -->
<svg version="1.1" id="Capa_1" xmlns="http://www.w3.org/2000/svg" xmlns:xlink="http://www.w3.org/1999/xlink" x="0px" y="0px"
	 viewBox="0 0 512 512" style="enable-background:new 0 0 512 512;" xml:space="preserve">
<g>
	<g>
		<g>
			<path d="M464,0H48C21.49,0,0,21.49,0,48v416c0,26.51,21.49,48,48,48h416c26.51,0,48-21.49,48-48V48C512,21.49,490.51,0,464,0z
				 M480,464c0,8.837-7.163,16-16,16H48c-8.837,0-16-7.163-16-16V48c0-8.837,7.163-16,16-16h416c8.837,0,16,7.163,16,16V464z"/>
			<path d="M64,80v64h32V96h48V64H80C71.163,64,64,71.163,64,80z"/>
			<path d="M416,416h-48v32h64c8.837,0,16-7.163,16-16v-64h-32V416z"/>
			<path d="M432,64h-64v32h48v48h32V80C448,71.163,440.837,64,432,64z"/>
			<path d="M96,368H64v64c0,8.837,7.163,16,16,16h64v-32H96V368z"/>
			<path d="M288,208h-64c-8.837,0-16,7.163-16,16v64c0,8.837,7.163,16,16,16h64c8.837,0,16-7.163,16-16v-64
				C304,215.163,296.837,208,288,208z M272,272h-32v-32h32V272z"/>
			<rect x="240" y="64" width="32" height="32"/>
			<rect x="240" y="416" width="32" height="32"/>
			<rect x="416" y="240" width="32" height="32"/>
			<rect x="64" y="240" width="32" height="32"/>
		</g>
	</g>
</g>
<g>
</g>
<g>
</g>
<g>
</g>
<g>
</g>
<g>
</g>
<g>
</g>
<g>
</g>
<g>
</g>
<g>
</g>
<g>
</g>
<g>
</g>
<g>
</g>
<g>
</g>
<g>
</g>
<g>
</g>
</svg>
